<svg width="50" height="50" viewBox="0 0 50 50" fill="none" xmlns="http://www.w3.org/2000/svg">
<path d="M28.953 48.9305C29.6156 48.2668 29.9875 47.3673 29.987 46.4295C29.9866 45.4917 29.6138 44.5925 28.9507 43.9294C28.9503 43.929 28.95 43.9286 28.9496 43.9281L10.0059 24.9845L28.9509 6.03947C28.9517 6.03872 28.9525 6.03796 28.9532 6.03721C29.616 5.37331 29.988 4.47336 29.9873 3.53527C29.9867 2.59718 29.6135 1.69775 28.9498 1.03477C28.2861 0.3719 27.3864 -0.000295624 26.4484 1.05289e-05C25.5104 0.000316682 24.611 0.373107 23.9478 1.03642C23.9476 1.03663 23.9474 1.03686 23.9472 1.03707L-0.00023533 24.9845L23.9479 48.9326L23.9508 48.9356C24.6149 49.5982 25.515 49.9699 26.4531 49.969C27.3913 49.9681 28.2907 49.5945 28.9534 48.9306L28.953 48.9305Z" fill="#227F23"/>
<path d="M48.9657 48.9305C49.6282 48.2668 50.0002 47.3673 49.9997 46.4295C49.9993 45.4917 49.6265 44.5925 48.9634 43.9294C48.963 43.929 48.9626 43.9286 48.9622 43.9281L30.0186 24.9845L48.9636 6.03947C48.9644 6.03872 48.9652 6.03796 48.9659 6.0372C49.6287 5.37331 50.0007 4.47336 50 3.53527C49.9993 2.59717 49.6261 1.69775 48.9624 1.03477C48.2988 0.3719 47.3991 -0.000295624 46.4611 1.05289e-05C45.5231 0.000316682 44.6237 0.373102 43.9605 1.03641C43.9603 1.03663 43.9601 1.03685 43.9599 1.03707L20.0125 24.9845L43.9606 48.9326L43.9635 48.9356C44.6276 49.5982 45.5277 49.9699 46.4658 49.969C47.404 49.9681 48.3034 49.5945 48.9661 48.9306L48.9657 48.9305Z" fill="#227F23"/>
</svg>
