<svg width="16" height="30" viewBox="0 0 16 30" fill="none" xmlns="http://www.w3.org/2000/svg">
<path d="M5 23C5 16.2 4.92857 16 2.5 16C0.5 16 0 15.5 0 13.5C0 11.5 0.5 11 2.5 11C4.69048 11 5 10.5667 5 7.5C5 2.90185 7.90185 0 12.5 0C15.54 0 16 0.31946 16 2.43045C16 4.18957 15.3785 4.94916 13.75 5.18045C12.139 5.40925 11.4101 6.28099 11.1836 8.25C10.9082 10.6431 11.2141 11 13.5406 11C15.5675 11 16.0672 11.3825 15.607 12.5818C15.2731 13.4518 15 14.5768 15 15.0818C15 15.5868 14.1 16 13 16C11.1905 16 11 16.6667 11 23V30H8H5V23Z" fill="#247F23"/>
</svg>
