<svg width="31" height="31" viewBox="0 0 31 31" fill="none" xmlns="http://www.w3.org/2000/svg">
<path d="M1.24697 28.847C-0.415658 27.1843 -0.415658 2.90961 1.24697 1.24697C2.90961 -0.415658 27.1843 -0.415658 28.847 1.24697C30.5096 2.90961 30.5096 27.1843 28.847 28.847C27.1843 30.5096 2.90961 30.5096 1.24697 28.847ZM25.8427 18.797C26.0275 14.5785 25.7462 12.047 25.0927 12.047C24.5175 12.047 24.047 13.4316 24.047 15.1239C24.047 19.347 19.3065 24.047 15.047 24.047C10.7875 24.047 6.04697 19.347 6.04697 15.1239C6.04697 13.4316 5.59697 12.047 5.04697 12.047C3.92332 12.047 3.64748 24.3141 4.74642 25.4131C5.13112 25.7978 9.96862 25.9853 15.4964 25.8298L25.547 25.547L25.8427 18.797ZM19.9852 16.7316C21.574 12.5267 16.7009 8.15386 12.7406 10.2305C10.3255 11.4969 9.05303 15.1078 10.2305 17.3534C12.4176 21.5243 18.3164 21.1483 19.9852 16.7316ZM26.047 6.54697C26.047 4.54697 25.547 4.04697 23.547 4.04697C21.547 4.04697 21.047 4.54697 21.047 6.54697C21.047 8.54697 21.547 9.04697 23.547 9.04697C25.547 9.04697 26.047 8.54697 26.047 6.54697Z" fill="#247F23"/>
</svg>
