<svg width="60" height="60" viewBox="0 0 60 60" fill="none" xmlns="http://www.w3.org/2000/svg">
<path d="M0 35.5V11H4.2567C7.5663 11 10.6856 9.77627 18.2762 5.5C23.6457 2.475 28.9215 0 30 0C31.0785 0 36.3543 2.475 41.7238 5.5C49.3144 9.77627 52.4337 11 55.7433 11H60V35.5V60H30H0V35.5ZM58 39V20H30H2V39V58H30H58V39ZM8 51C8 50.45 8.45 50 9 50C9.55 50 10 50.45 10 51C10 51.55 9.55 52 9 52C8.45 52 8 51.55 8 51ZM15 51C15 50.45 15.45 50 16 50C16.55 50 17 50.45 17 51C17 51.55 16.55 52 16 52C15.45 52 15 51.55 15 51ZM22 51C22 50.45 22.45 50 23 50C23.55 50 24 50.45 24 51C24 51.55 23.55 52 23 52C22.45 52 22 51.55 22 51ZM29 51C29 50.45 29.45 50 30 50C30.55 50 31 50.45 31 51C31 51.55 30.55 52 30 52C29.45 52 29 51.55 29 51ZM36 51C36 50.45 36.45 50 37 50C37.55 50 38 50.45 38 51C38 51.55 37.55 52 37 52C36.45 52 36 51.55 36 51ZM8 43C8 42.45 8.45 42 9 42C9.55 42 10 42.45 10 43C10 43.55 9.55 44 9 44C8.45 44 8 43.55 8 43ZM15 43C15 42.45 15.45 42 16 42C16.55 42 17 42.45 17 43C17 43.55 16.55 44 16 44C15.45 44 15 43.55 15 43ZM22 43C22 42.45 22.45 42 23 42C23.55 42 24 42.45 24 43C24 43.55 23.55 44 23 44C22.45 44 22 43.55 22 43ZM29 43C29 42.45 29.45 42 30 42C30.55 42 31 42.45 31 43C31 43.55 30.55 44 30 44C29.45 44 29 43.55 29 43ZM36 43C36 42.45 36.45 42 37 42C37.55 42 38 42.45 38 43C38 43.55 37.55 44 37 44C36.45 44 36 43.55 36 43ZM43 43C43 42.45 43.45 42 44 42C44.55 42 45 42.45 45 43C45 43.55 44.55 44 44 44C43.45 44 43 43.55 43 43ZM50 43C50 42.45 50.45 42 51 42C51.55 42 52 42.45 52 43C52 43.55 51.55 44 51 44C50.45 44 50 43.55 50 43ZM8 36C8 35.45 8.45 35 9 35C9.55 35 10 35.45 10 36C10 36.55 9.55 37 9 37C8.45 37 8 36.55 8 36ZM15 36C15 35.45 15.45 35 16 35C16.55 35 17 35.45 17 36C17 36.55 16.55 37 16 37C15.45 37 15 36.55 15 36ZM22 36C22 35.45 22.45 35 23 35C23.55 35 24 35.45 24 36C24 36.55 23.55 37 23 37C22.45 37 22 36.55 22 36ZM29 36C29 35.45 29.45 35 30 35C30.55 35 31 35.45 31 36C31 36.55 30.55 37 30 37C29.45 37 29 36.55 29 36ZM36 36C36 35.45 36.45 35 37 35C37.55 35 38 35.45 38 36C38 36.55 37.55 37 37 37C36.45 37 36 36.55 36 36ZM43 36C43 35.45 43.45 35 44 35C44.55 35 45 35.45 45 36C45 36.55 44.55 37 44 37C43.45 37 43 36.55 43 36ZM50 36C50 35.45 50.45 35 51 35C51.55 35 52 35.45 52 36C52 36.55 51.55 37 51 37C50.45 37 50 36.55 50 36ZM22 28C22 27.45 22.45 27 23 27C23.55 27 24 27.45 24 28C24 28.55 23.55 29 23 29C22.45 29 22 28.55 22 28ZM29 28C29 27.45 29.45 27 30 27C30.55 27 31 27.45 31 28C31 28.55 30.55 29 30 29C29.45 29 29 28.55 29 28ZM36 28C36 27.45 36.45 27 37 27C37.55 27 38 27.45 38 28C38 28.55 37.55 29 37 29C36.45 29 36 28.55 36 28ZM43 28C43 27.45 43.45 27 44 27C44.55 27 45 27.45 45 28C45 28.55 44.55 29 44 29C43.45 29 43 28.55 43 28ZM50 28C50 27.45 50.45 27 51 27C51.55 27 52 27.45 52 28C52 28.55 51.55 29 51 29C50.45 29 50 28.55 50 28ZM58 15.5V13H30H2V15.5V18H30H58V15.5ZM40.1681 8.385L35.8361 5.78893L34.3614 7.89446C33.4411 9.2083 31.8012 10 30 10C28.1988 10 26.5589 9.2083 25.6386 7.89446L24.1639 5.78893L19.8319 8.385L15.5 10.9811H30H44.5L40.1681 8.385ZM32 5C32 3.66667 31.3333 3 30 3C28.6667 3 28 3.66667 28 5C28 6.33333 28.6667 7 30 7C31.3333 7 32 6.33333 32 5Z" fill="#247F22"/>
</svg>
