<svg width="236" height="48" viewBox="0 0 236 48" fill="none" xmlns="http://www.w3.org/2000/svg">
<path fill-rule="evenodd" clip-rule="evenodd" d="M151.205 20.5548V0.842893H153.628V20.5548H151.205ZM156.468 13.4106C156.468 10.7722 157.202 8.81755 158.675 7.54659C159.9 6.49121 161.401 5.96355 163.167 5.96355C165.126 5.96355 166.732 6.60595 167.98 7.8907C169.224 9.17085 169.848 10.9466 169.848 13.2087C169.848 15.0441 169.573 16.4848 169.022 17.5356C168.471 18.5863 167.668 19.403 166.613 19.9858C165.562 20.5686 164.411 20.8576 163.167 20.8576C161.167 20.8576 159.551 20.2198 158.317 18.9396C157.083 17.6595 156.468 15.8149 156.468 13.4106ZM158.946 13.4152C158.946 15.2415 159.345 16.6088 160.143 17.5127C160.946 18.4213 161.951 18.8755 163.167 18.8755C164.369 18.8755 165.37 18.4213 166.173 17.5081C166.971 16.595 167.37 15.2048 167.37 13.3372C167.37 11.5753 166.966 10.2401 166.163 9.33616C165.36 8.42764 164.36 7.97337 163.167 7.97337C161.951 7.97337 160.946 8.42304 160.143 9.32697C159.345 10.2309 158.946 11.5936 158.946 13.4152ZM172.243 21.7387L174.583 22.069C174.679 22.794 174.955 23.3217 175.404 23.6566C176.006 24.1017 176.827 24.3265 177.868 24.3265C178.988 24.3265 179.855 24.1017 180.466 23.6566C181.076 23.2115 181.489 22.5829 181.704 21.7799C181.828 21.289 181.888 20.2566 181.879 18.6827C180.819 19.9308 179.502 20.5549 177.923 20.5549C175.96 20.5549 174.436 19.8482 173.363 18.4304C172.284 17.0172 171.747 15.3195 171.747 13.3418C171.747 11.9791 171.995 10.7219 172.486 9.57013C172.977 8.41845 173.693 7.53289 174.629 6.90428C175.565 6.27566 176.666 5.96364 177.933 5.96364C179.617 5.96364 181.007 6.65193 182.099 8.02845V6.26647H184.329V18.6047C184.329 20.8301 184.104 22.404 183.65 23.3308C183.2 24.2577 182.48 24.9919 181.502 25.5287C180.521 26.0655 179.314 26.3362 177.882 26.3362C176.18 26.3362 174.808 25.9554 173.762 25.1892C172.711 24.4275 172.206 23.2758 172.243 21.7387ZM174.225 13.1675C174.225 15.035 174.597 16.3977 175.34 17.2557C176.088 18.1138 177.02 18.5451 178.139 18.5451C179.254 18.5451 180.186 18.1184 180.943 17.2649C181.695 16.4115 182.071 15.0717 182.071 13.2455C182.071 11.5019 181.681 10.185 180.906 9.29941C180.131 8.41385 179.194 7.97337 178.102 7.97337C177.024 7.97337 176.111 8.40926 175.354 9.28109C174.601 10.1529 174.225 11.4468 174.225 13.1675ZM188 3.59602V0.842985H190.422V3.59602H188ZM188 20.5549V6.26647H190.422V20.5549L188 20.5549ZM193.153 16.2876L195.548 15.9022C195.681 16.8611 196.057 17.5953 196.672 18.1092C197.287 18.6185 198.149 18.8755 199.25 18.8755C200.365 18.8755 201.191 18.6506 201.733 18.1964C202.27 17.7467 202.54 17.2144 202.54 16.6042C202.54 16.0582 202.297 15.6269 201.815 15.3149C201.476 15.0992 200.65 14.8285 199.338 14.4935C197.567 14.0484 196.341 13.663 195.653 13.3372C194.97 13.0069 194.451 12.5572 194.098 11.9791C193.744 11.4055 193.565 10.7678 193.565 10.0703C193.565 9.43253 193.712 8.8452 194.001 8.30377C194.295 7.76232 194.69 7.31265 195.19 6.95475C195.566 6.67944 196.08 6.44542 196.727 6.25274C197.378 6.06001 198.071 5.96364 198.815 5.96364C199.934 5.96364 200.916 6.12427 201.76 6.45001C202.609 6.77121 203.233 7.21169 203.637 7.76232C204.036 8.31755 204.316 9.05626 204.468 9.9831L202.1 10.3135C201.994 9.57013 201.682 8.98745 201.168 8.56983C200.655 8.15232 199.93 7.94587 198.989 7.94587C197.883 7.94587 197.089 8.12941 196.617 8.49644C196.144 8.86352 195.906 9.29481 195.906 9.78583C195.906 10.0978 196.002 10.3823 196.199 10.6346C196.396 10.8916 196.704 11.1073 197.126 11.277C197.369 11.3688 198.076 11.5753 199.26 11.8965C200.967 12.3507 202.16 12.727 202.839 13.016C203.518 13.3051 204.05 13.7318 204.435 14.2825C204.825 14.8376 205.018 15.5259 205.018 16.3519C205.018 17.1548 204.784 17.9119 204.312 18.6231C203.839 19.3343 203.16 19.885 202.274 20.275C201.384 20.665 200.379 20.8577 199.26 20.8577C197.406 20.8577 195.988 20.4723 195.015 19.706C194.043 18.9351 193.423 17.7972 193.153 16.2876ZM213.14 18.3937L213.47 20.5319C212.791 20.6741 212.181 20.7475 211.648 20.7475C210.772 20.7475 210.093 20.6099 209.607 20.33C209.125 20.0501 208.785 19.6876 208.588 19.2334C208.391 18.7791 208.294 17.8247 208.294 16.3702V8.13854H206.505V6.26647H208.294V2.73337L210.717 1.27887V6.26647H213.14V8.13854H210.717V16.5078C210.717 17.2007 210.758 17.6458 210.845 17.8431C210.928 18.0404 211.066 18.1964 211.258 18.3157C211.451 18.4304 211.726 18.4901 212.084 18.4901C212.35 18.4901 212.704 18.458 213.14 18.3937V18.3937ZM215.53 3.59602V0.842985H217.953V3.59602H215.53ZM215.53 20.5549V6.26647H217.953V20.5549L215.53 20.5549ZM221.656 20.5549V0.842981H224.078V12.0709L229.805 6.26647H232.934L227.483 11.5753L233.485 20.5549H230.502L225.758 13.2547L224.078 14.8882V20.5549L221.656 20.5549Z" fill="white"/>
<path fill-rule="evenodd" clip-rule="evenodd" d="M151 30L236 30.0086L151 30Z" fill="#247F23"/>
<path d="M151 30L236 30.0086" stroke="#247F23" stroke-width="3"/>
<path fill-rule="evenodd" clip-rule="evenodd" d="M150.943 38.3997H152.639L154.358 43.6036L156.26 38.3997H157.835V44.9024H156.732V39.6673L154.817 44.9024H153.831L152.021 39.4167V44.9024H150.943V38.3997ZM159.52 38.3997H160.622V43.3592L163.686 38.3997H164.87V44.9024H163.767V39.9742L160.708 44.9024H159.52V38.3997ZM165.943 38.3997H171.205V39.3144H169.125V44.9024H168.023V39.3144H165.943V38.3997ZM172.258 38.3997H173.36V41.106H176.417V38.3997H177.52V44.9024H176.417V42.0207H173.36V44.9024H172.258V38.3997ZM179.176 38.3997H180.279V43.3592L183.342 38.3997H184.526V44.9024H183.423V39.9742L180.364 44.9024H179.176V38.3997ZM186.176 38.3997H187.278V43.3592L190.342 38.3997H191.526V44.9024H190.423V39.9742L187.364 44.9024H186.176V38.3997ZM189.985 35.9942H190.736C190.676 36.5099 190.488 36.9066 190.175 37.1823C189.861 37.46 189.446 37.5979 188.926 37.5979C188.404 37.5979 187.986 37.46 187.675 37.1865C187.364 36.9108 187.176 36.5141 187.115 35.9942H187.867C187.923 36.276 188.038 36.487 188.207 36.6248C188.377 36.7647 188.606 36.8336 188.892 36.8336C189.224 36.8336 189.475 36.7668 189.644 36.631C189.813 36.4974 189.928 36.2844 189.985 35.9942ZM201.392 35.7184L202.37 35.731C202.326 36.1674 202.228 36.4723 202.079 36.6436C201.931 36.8148 201.741 36.9234 201.507 36.9735C201.273 37.0215 200.814 37.0466 200.131 37.0466C199.225 37.0466 198.607 37.1343 198.277 37.3097C197.949 37.4852 197.711 37.765 197.567 38.1492C197.423 38.5355 197.343 39.0304 197.327 39.6381C197.604 39.2246 197.928 38.9155 198.3 38.7088C198.669 38.5021 199.089 38.3998 199.553 38.3998C200.405 38.3998 201.111 38.6921 201.67 39.2768C202.228 39.8615 202.508 40.6529 202.508 41.6532C202.508 42.4112 202.368 43.0335 202.086 43.518C201.804 44.0024 201.47 44.3783 201.083 44.6435C200.699 44.9087 200.173 45.0402 199.509 45.0402C198.736 45.0402 198.137 44.8648 197.709 44.5119C197.281 44.159 196.953 43.708 196.723 43.1588C196.496 42.6096 196.381 41.6511 196.381 40.2875C196.381 38.5731 196.671 37.4183 197.249 36.8232C197.828 36.228 198.719 35.9315 199.922 35.9315C200.672 35.9315 201.096 35.919 201.198 35.8939C201.298 35.8688 201.363 35.8104 201.392 35.7185V35.7184ZM201.355 41.6218C201.355 40.9474 201.194 40.394 200.875 39.9617C200.555 39.5295 200.104 39.3144 199.521 39.3144C198.914 39.3144 198.446 39.542 198.116 39.9993C197.786 40.4545 197.621 41.0622 197.621 41.8244C197.621 42.5762 197.803 43.1525 198.168 43.5514C198.532 43.9502 198.983 44.1506 199.515 44.1506C200.062 44.1506 200.505 43.9188 200.845 43.4574C201.186 42.9959 201.355 42.3841 201.355 41.6218ZM203.834 47.3957V38.3997H204.836V39.2538C205.072 38.9239 205.339 38.6754 205.638 38.5104C205.934 38.3454 206.296 38.2619 206.719 38.2619C207.275 38.2619 207.764 38.4039 208.187 38.69C208.611 38.974 208.931 39.377 209.148 39.8949C209.363 40.4149 209.472 40.9828 209.472 41.603C209.472 42.265 209.353 42.8622 209.115 43.3947C208.877 43.9252 208.53 44.3323 208.075 44.6163C207.622 44.8982 207.143 45.0402 206.642 45.0402C206.275 45.0402 205.945 44.963 205.655 44.8084C205.362 44.6539 205.124 44.4597 204.936 44.2237V47.3957H203.834ZM204.836 41.6908C204.836 42.524 205.005 43.1399 205.341 43.5388C205.68 43.9377 206.089 44.1381 206.569 44.1381C207.058 44.1381 207.475 43.9314 207.822 43.5179C208.171 43.1045 208.344 42.4655 208.344 41.5989C208.344 40.7719 208.175 40.1539 207.835 39.7424C207.494 39.3311 207.089 39.1265 206.617 39.1265C206.149 39.1265 205.736 39.3457 205.377 39.7821C205.015 40.2206 204.836 40.8555 204.836 41.6908ZM210.388 41.6511C210.388 40.4504 210.723 39.5608 211.393 38.9823C211.95 38.502 212.633 38.2619 213.437 38.2619C214.329 38.2619 215.06 38.5542 215.628 39.139C216.194 39.7215 216.478 40.5297 216.478 41.5592C216.478 42.3944 216.352 43.0502 216.102 43.5284C215.851 44.0066 215.486 44.3783 215.006 44.6435C214.527 44.9087 214.003 45.0402 213.437 45.0402C212.527 45.0402 211.792 44.7499 211.23 44.1673C210.668 43.5848 210.388 42.7453 210.388 41.6511ZM211.516 41.6532C211.516 42.4843 211.698 43.1066 212.061 43.518C212.427 43.9315 212.884 44.1382 213.437 44.1382C213.984 44.1382 214.44 43.9315 214.805 43.5159C215.168 43.1003 215.35 42.4676 215.35 41.6177C215.35 40.8159 215.166 40.2082 214.801 39.7968C214.435 39.3833 213.98 39.1766 213.437 39.1766C212.884 39.1766 212.427 39.3813 212.061 39.7926C211.698 40.204 211.516 40.8242 211.516 41.6532ZM217.758 38.3998H218.86V41.2064C219.211 41.2064 219.458 41.1395 219.6 41.0038C219.739 40.8702 219.946 40.4797 220.222 39.8302C220.439 39.3166 220.614 38.9782 220.748 38.8154C220.884 38.6525 221.038 38.5418 221.214 38.4854C221.391 38.4291 221.673 38.3998 222.059 38.3998H222.281V39.3082L221.974 39.3019C221.684 39.3019 221.498 39.3458 221.416 39.4314C221.331 39.5212 221.199 39.7885 221.024 40.2333C220.857 40.6593 220.704 40.9537 220.564 41.1166C220.426 41.2795 220.211 41.4277 219.921 41.5635C220.395 41.6909 220.863 42.1315 221.322 42.8874L222.531 44.9025H221.32L220.128 42.8937C219.888 42.4865 219.679 42.2192 219.501 42.0897C219.322 41.9602 219.109 41.8955 218.86 41.8955V44.9025H217.758V38.3998ZM227.827 42.7976L228.967 42.948C228.79 43.6099 228.458 44.1257 227.973 44.4911C227.489 44.8565 226.871 45.0403 226.117 45.0403C225.169 45.0403 224.417 44.748 223.862 44.1633C223.306 43.5807 223.028 42.76 223.028 41.7054C223.028 40.6154 223.308 39.7676 223.87 39.1662C224.432 38.5627 225.16 38.262 226.056 38.262C226.923 38.262 227.631 38.5564 228.18 39.1474C228.729 39.7384 229.005 40.5694 229.005 41.6407C229.005 41.7054 229.003 41.8036 228.999 41.933H224.156C224.198 42.6451 224.398 43.1923 224.762 43.5702C225.123 43.9481 225.576 44.1382 226.117 44.1382C226.52 44.1382 226.864 44.0317 227.148 43.8187C227.435 43.6057 227.66 43.2653 227.827 42.7976H227.827ZM224.219 41.0309H227.84C227.792 40.4839 227.652 40.0745 227.424 39.801C227.075 39.3771 226.62 39.1641 226.063 39.1641C225.557 39.1641 225.133 39.3332 224.789 39.6715C224.446 40.0098 224.256 40.463 224.219 41.0309ZM230.36 47.3958V38.3998H231.362V39.2538C231.598 38.924 231.866 38.6755 232.164 38.5105C232.461 38.3455 232.822 38.262 233.246 38.262C233.801 38.262 234.29 38.404 234.714 38.6901C235.138 38.974 235.457 39.3771 235.675 39.895C235.89 40.4149 235.998 40.9829 235.998 41.6031C235.998 42.2651 235.879 42.8623 235.641 43.3948C235.403 43.9252 235.057 44.3324 234.601 44.6164C234.148 44.8983 233.67 45.0403 233.169 45.0403C232.801 45.0403 232.471 44.963 232.181 44.8085C231.889 44.654 231.651 44.4598 231.463 44.2238V47.3958H230.36ZM231.362 41.6908C231.362 42.524 231.532 43.14 231.868 43.5389C232.206 43.9378 232.615 44.1382 233.096 44.1382C233.584 44.1382 234.002 43.9315 234.349 43.518C234.697 43.1046 234.871 42.4656 234.871 41.599C234.871 40.772 234.702 40.1539 234.361 39.7425C234.021 39.3311 233.616 39.1265 233.144 39.1265C232.676 39.1265 232.262 39.3458 231.903 39.7822C231.542 40.2207 231.362 40.8555 231.362 41.6908Z" fill="white"/>
<path d="M53.1656 0.843102L51.3672 44.9751H54.5196L56.1419 5.15802L56.141 4.82024L53.483 0.873672L53.1656 0.843102Z" fill="#247F23" stroke="#247F23" stroke-width="1.5"/>
<path d="M86.677 0.843102L85.0547 40.6601L85.0564 41.1439L87.62 44.805L88.0309 44.9751L89.8293 0.843102H86.677Z" fill="#247F23" stroke="#247F23" stroke-width="1.5"/>
<path d="M57.5859 0.84288H53.1655L83.6104 44.975H88.0307L57.5859 0.84288Z" fill="#247F23" stroke="#247F23" stroke-width="1.5"/>
<path d="M98.1714 0.842893L98.043 3.9953H101.195L101.324 0.842893H98.1714Z" fill="#247F23" stroke="#247F23" stroke-width="1.5"/>
<path d="M97.7862 10.2992L96.373 44.9748H99.5255L100.939 10.2992H97.7862Z" fill="#247F23" stroke="#247F23" stroke-width="1.5"/>
<path d="M107.816 0.843102L123.039 22.9091L106.018 44.9751H110.438L125.125 25.9341L125.265 25.7284L125.468 20.0405L125.372 19.884L112.237 0.843102H107.816Z" fill="#247F23" stroke="#247F23" stroke-width="1.5"/>
<path d="M23.9646 0.843211C18.1133 0.848259 12.4088 3.17702 8.1056 7.31738C3.80243 11.4577 1.25295 17.0707 1.01782 22.9218C0.78273 28.773 2.88124 34.3832 6.85187 38.5189C10.8225 42.6545 16.3401 44.9768 22.1913 44.9752C28.0426 44.9735 33.7483 42.6479 38.0537 38.5099C42.3592 34.3719 44.9118 28.7603 45.1503 22.9092L45.1511 22.883C45.3826 17.032 43.2808 11.4234 39.3077 7.29032C35.3347 3.15727 29.8158 0.838251 23.9646 0.843211ZM23.8389 3.99562C28.8542 3.99132 33.5846 5.979 36.9901 9.52156C40.3956 13.0641 42.1972 17.8715 41.9988 22.8866L41.9979 22.9092C41.7935 27.9244 39.6056 32.7344 35.9152 36.2812C32.2248 39.828 27.3342 41.8213 22.3189 41.8227C17.3036 41.8242 12.5743 39.8336 9.17088 36.2888C5.76751 32.744 3.9688 27.9353 4.17031 22.92C4.37184 17.9048 6.55709 13.0937 10.2455 9.54487C13.9339 5.99601 18.8235 3.99995 23.8389 3.99562H23.8389Z" fill="#247F23" stroke="#247F23" stroke-width="1.5"/>
<path d="M140.059 0.843102L125.372 19.884L125.273 20.033L125.03 25.7566L125.125 25.9341L138.261 44.9751H142.681L127.459 22.9091L144.48 0.843102H140.059Z" fill="#247F23" stroke="#247F23" stroke-width="1.5"/>
</svg>
