<svg width="60" height="60" viewBox="0 0 60 60" fill="none" xmlns="http://www.w3.org/2000/svg">
<path d="M1.65499 58.0542C0.21715 56.4654 0 53.2421 0 33.4884C0 20.5696 0.4227 9.9616 0.97889 8.92235C2.45188 6.17005 7.38959 4.8829 16.4749 4.8829C23.8205 4.8829 24.8813 4.63817 26.9139 2.47459C30.0401 -0.853139 36.9926 -0.818307 40.1484 2.54089C42.1334 4.6538 43.212 4.8829 51.1743 4.8829H60V32.3829V59.8829H31.655C5.46479 59.8829 3.18416 59.7439 1.65499 58.0542V58.0542ZM58 56.9662C58 56.4621 57.4375 55.7871 56.75 55.4662C55.75 54.9996 55.75 54.7662 56.75 54.2996C57.4379 53.9785 58 51.9551 58 49.7996V45.8829H50.8287C42.2302 45.8829 40 44.4412 40 38.8829C40 33.3875 42.6316 31.5256 51.0734 31.0486C57.5985 30.6799 58 30.5188 58 28.2701C58 26.9571 57.55 25.8829 57 25.8829C55.5606 25.8829 55.7658 23.1441 57.25 22.5452C57.9375 22.2678 46.4074 22.0053 31.6276 21.9618C8.60182 21.8941 4.92274 22.0849 5.92611 23.2939C7.3429 25.001 5.90341 26.1668 3.51193 25.2491C1.99625 24.6675 1.86835 25.8582 2.11594 38.2459C2.3094 47.9254 2.7319 51.8829 3.5718 51.8829C5.51313 51.8829 7.3145 54.5705 5.9418 55.4189C5.09824 55.9402 5.1526 56.3649 6.14324 56.9926C7.98921 58.1623 58 58.1368 58 56.9662V56.9662ZM8 54.8829C8 54.3329 8.9 53.8829 10 53.8829C11.1 53.8829 12 54.3329 12 54.8829C12 55.4329 11.1 55.8829 10 55.8829C8.9 55.8829 8 55.4329 8 54.8829ZM14 54.8829C14 54.3329 14.9 53.8829 16 53.8829C17.1 53.8829 18 54.3329 18 54.8829C18 55.4329 17.1 55.8829 16 55.8829C14.9 55.8829 14 55.4329 14 54.8829ZM20 54.8829C20 54.3329 20.9 53.8829 22 53.8829C23.1 53.8829 24 54.3329 24 54.8829C24 55.4329 23.1 55.8829 22 55.8829C20.9 55.8829 20 55.4329 20 54.8829ZM26 54.8829C26 54.3329 26.9 53.8829 28 53.8829C29.1 53.8829 30 54.3329 30 54.8829C30 55.4329 29.1 55.8829 28 55.8829C26.9 55.8829 26 55.4329 26 54.8829ZM32 54.8829C32 54.3329 32.9 53.8829 34 53.8829C35.1 53.8829 36 54.3329 36 54.8829C36 55.4329 35.1 55.8829 34 55.8829C32.9 55.8829 32 55.4329 32 54.8829ZM38 54.8829C38 54.3329 38.9 53.8829 40 53.8829C41.1 53.8829 42 54.3329 42 54.8829C42 55.4329 41.1 55.8829 40 55.8829C38.9 55.8829 38 55.4329 38 54.8829ZM44 54.8829C44 54.3329 44.9 53.8829 46 53.8829C47.1 53.8829 48 54.3329 48 54.8829C48 55.4329 47.1 55.8829 46 55.8829C44.9 55.8829 44 55.4329 44 54.8829ZM50 54.8829C50 54.3329 50.9 53.8829 52 53.8829C53.1 53.8829 54 54.3329 54 54.8829C54 55.4329 53.1 55.8829 52 55.8829C50.9 55.8829 50 55.4329 50 54.8829ZM8 24.3829C8 23.5496 8.88889 22.8829 10 22.8829C11.1111 22.8829 12 23.5496 12 24.3829C12 25.2162 11.1111 25.8829 10 25.8829C8.88889 25.8829 8 25.2162 8 24.3829ZM14 24.3829C14 23.5496 14.8889 22.8829 16 22.8829C17.1111 22.8829 18 23.5496 18 24.3829C18 25.2162 17.1111 25.8829 16 25.8829C14.8889 25.8829 14 25.2162 14 24.3829ZM20 24.3829C20 23.5496 20.8889 22.8829 22 22.8829C23.1111 22.8829 24 23.5496 24 24.3829C24 25.2162 23.1111 25.8829 22 25.8829C20.8889 25.8829 20 25.2162 20 24.3829ZM26 24.3829C26 23.5496 26.8889 22.8829 28 22.8829C29.1111 22.8829 30 23.5496 30 24.3829C30 25.2162 29.1111 25.8829 28 25.8829C26.8889 25.8829 26 25.2162 26 24.3829ZM32 24.3829C32 23.5496 32.8889 22.8829 34 22.8829C35.1111 22.8829 36 23.5496 36 24.3829C36 25.2162 35.1111 25.8829 34 25.8829C32.8889 25.8829 32 25.2162 32 24.3829ZM38 24.3829C38 23.5496 38.8889 22.8829 40 22.8829C41.1111 22.8829 42 23.5496 42 24.3829C42 25.2162 41.1111 25.8829 40 25.8829C38.8889 25.8829 38 25.2162 38 24.3829ZM44 24.3829C44 23.5496 44.8889 22.8829 46 22.8829C47.1111 22.8829 48 23.5496 48 24.3829C48 25.2162 47.1111 25.8829 46 25.8829C44.8889 25.8829 44 25.2162 44 24.3829ZM50 24.3829C50 23.5496 50.8889 22.8829 52 22.8829C53.1111 22.8829 54 23.5496 54 24.3829C54 25.2162 53.1111 25.8829 52 25.8829C50.8889 25.8829 50 25.2162 50 24.3829ZM58 38.8829V33.8829H53.3089C49.216 33.8829 48.8443 34.0486 50.3947 35.1822C53.0794 37.1453 52.1925 42.1127 49 42.9937C47.2636 43.4728 48.2563 43.714 52.25 43.7832L58 43.8829V38.8829ZM44.5 38.9784C44.5 36.8309 44.1625 35.2825 43.75 35.5374C42.4156 36.3621 43.0075 42.8829 44.4167 42.8829C44.4625 42.8829 44.5 41.1259 44.5 38.9784L44.5 38.9784ZM49 38.8829C49 38.3329 48.55 37.8829 48 37.8829C47.45 37.8829 47 38.3329 47 38.8829C47 39.4329 47.45 39.8829 48 39.8829C48.55 39.8829 49 39.4329 49 38.8829ZM14 15.3829C16.5436 12.7586 16.968 11.8829 15.6962 11.8829C14.7633 11.8829 14 11.2079 14 10.3829C14 8.65962 17.646 8.32102 18.2032 9.99256C18.4346 10.6867 19.0733 10.4995 19.909 9.49256C21.1137 8.04092 20.6028 7.8829 14.7042 7.8829C6.77417 7.8829 4.48692 8.55975 6.05049 10.4437C6.88759 11.4524 6.65366 12.0822 5.07601 13.0675C2.72136 14.538 2.45555 15.9385 4.2 17.6829C6.47604 19.959 10.4742 19.0206 14 15.3829ZM8 10.3829C8 9.54957 8.88889 8.8829 10 8.8829C11.1111 8.8829 12 9.54957 12 10.3829C12 11.2162 11.1111 11.8829 10 11.8829C8.88889 11.8829 8 11.2162 8 10.3829ZM24 11.3829C28.0975 7.2579 31.2249 3.8829 30.9499 3.8829C30.6749 3.8829 27.0975 7.2579 23 11.3829C18.9025 15.5079 15.7751 18.8829 16.0501 18.8829C16.3251 18.8829 19.9025 15.5079 24 11.3829ZM30 13.3829C32.9874 10.3579 35.9124 7.8829 36.5 7.8829C37.0876 7.8829 40.0126 10.3579 43 13.3829C46.0316 16.4526 49.327 18.8829 50.4578 18.8829C52.0004 18.8829 50.6364 17.0354 44.7419 11.141L37 3.39903L29.2581 11.141C25 15.399 22.2029 18.8829 23.0422 18.8829C23.8816 18.8829 27.0126 16.4079 30 13.3829ZM40.7333 15.1496L37 11.4162L33.2667 15.1496L29.5333 18.8829H37H44.4667L40.7333 15.1496ZM58 13.3829V7.8829L51.75 8.01908C48.3125 8.09398 46.5125 8.35028 47.75 8.58864C48.9878 8.82704 50 9.7566 50 10.6548C50 12.3213 55.7387 18.8829 57.1962 18.8829C57.6383 18.8829 58 16.4079 58 13.3829ZM52 10.3829C52 9.54957 52.8889 8.8829 54 8.8829C55.1111 8.8829 56 9.54957 56 10.3829C56 11.2162 55.1111 11.8829 54 11.8829C52.8889 11.8829 52 11.2162 52 10.3829Z" fill="#247F22"/>
</svg>
