<svg width="50" height="50" viewBox="0 0 50 50" fill="none" xmlns="http://www.w3.org/2000/svg">
<path d="M21.047 1.03848C20.3844 1.70216 20.0125 2.60173 20.013 3.53949C20.0134 4.47726 20.3862 5.37648 21.0493 6.03955C21.0497 6.04 21.05 6.04044 21.0504 6.04089L39.9941 24.9845L21.0491 43.9295C21.0483 43.9303 21.0475 43.931 21.0468 43.9318C20.384 44.5957 20.012 45.4956 20.0127 46.4337C20.0134 47.3718 20.3865 48.2712 21.0502 48.9342C21.7139 49.5971 22.6136 49.9693 23.5516 49.969C24.4896 49.9687 25.389 49.5959 26.0522 48.9326C26.0524 48.9324 26.0526 48.9321 26.0528 48.9319L50.0002 24.9845L26.0521 1.03639L26.0492 1.03342C25.3851 0.370786 24.485 -0.000936407 23.5469 1.77157e-06C22.6087 0.00093995 21.7093 0.374465 21.0466 1.03843L21.047 1.03848Z" fill="#227F23"/>
<path d="M1.03426 1.03848C0.371753 1.70216 -0.000151413 2.60173 0.000284907 3.53949C0.000721226 4.47726 0.373461 5.37648 1.03658 6.03955C1.03697 6.04 1.03737 6.04044 1.03776 6.04089L19.9814 24.9845L1.03639 43.9295C1.03561 43.9303 1.03484 43.931 1.03406 43.9318C0.371297 44.5957 -0.000653671 45.4956 8.6239e-07 46.4337C0.000655396 47.3718 0.373869 48.2712 1.03756 48.9342C1.70119 49.5971 2.60091 49.9693 3.53889 49.969C4.47687 49.9687 5.37633 49.5959 6.03953 48.9326C6.03972 48.9324 6.03992 48.9321 6.04011 48.9319L29.9875 24.9845L6.03944 1.03639L6.03653 1.03343C5.37242 0.37079 4.47232 -0.000936407 3.53417 1.77155e-06C2.59602 0.00093995 1.69665 0.374465 1.03387 1.03843L1.03426 1.03848Z" fill="#227F23"/>
</svg>
