<svg width="41" height="60" viewBox="0 0 41 60" fill="none" xmlns="http://www.w3.org/2000/svg">
<path d="M0 56C0 53.167 0.42428 52 1.45431 52C2.55202 52 2.98112 50.3625 3.20431 45.3219L3.5 38.6437L10.2207 34.5719C13.9172 32.3323 16.9415 30.275 16.9415 30C16.9415 29.725 13.9172 27.6677 10.2207 25.4281L3.5 21.3563L3.20431 14.6781C2.98112 9.63748 2.55202 8 1.45431 8C0.42428 8 0 6.83304 0 4V0H20.5H41V4C41 6.83304 40.5757 8 39.5457 8C38.448 8 38.0189 9.63748 37.7957 14.6781L37.5 21.3563L30.7793 25.4281C27.0828 27.6677 24.0585 29.725 24.0585 30C24.0585 30.275 27.0828 32.3323 30.7793 34.5719L37.5 38.6437L37.7957 45.3219C38.0189 50.3625 38.448 52 39.5457 52C40.5757 52 41 53.167 41 56V60H20.5H0V56ZM39 56.5C39 55.2207 36.2778 55 20.5 55C4.72222 55 2 55.2207 2 56.5C2 57.7793 4.72222 58 20.5 58C36.2778 58 39 57.7793 39 56.5ZM35 46.4934V40.9869L27.9898 36.4934C24.1341 34.0221 20.7638 32 20.5 32C20.2362 32 16.8659 34.0221 13.0102 36.4934L6 40.9869V46.4934V52H20.5H35V46.4934ZM9 46C9 43.1111 9.41667 42 10.5 42C11.4333 42 12 42.9444 12 44.5C12 46.9706 12.1 47 20.5 47C28.9 47 29 46.9706 29 44.5C29 42.9444 29.5667 42 30.5 42C31.5833 42 32 43.1111 32 46V50H20.5H9V46ZM27.9898 23.5066L35 19.0131V13.5066V8H20.5H6V13.5071V19.0143L12.75 23.4375C16.4625 25.8702 19.8329 27.892 20.2398 27.9303C20.6466 27.9686 24.1341 25.9779 27.9898 23.5066ZM15 12.5C15 11.675 15.675 11 16.5 11C17.325 11 18 11.675 18 12.5C18 13.325 17.325 14 16.5 14C15.675 14 15 13.325 15 12.5ZM19 12.5C19 11.675 19.675 11 20.5 11C21.325 11 22 11.675 22 12.5C22 13.325 21.325 14 20.5 14C19.675 14 19 13.325 19 12.5ZM23 12.5C23 11.675 23.675 11 24.5 11C25.325 11 26 11.675 26 12.5C26 13.325 25.325 14 24.5 14C23.675 14 23 13.325 23 12.5ZM39 3.5C39 2.22072 36.2778 2 20.5 2C4.72222 2 2 2.22072 2 3.5C2 4.77928 4.72222 5 20.5 5C36.2778 5 39 4.77928 39 3.5Z" fill="#247F22"/>
</svg>
