<svg width="50" height="50" viewBox="0 0 50 50" fill="none" xmlns="http://www.w3.org/2000/svg">
<path d="M1.03848 28.9533C1.70216 29.6158 2.60173 29.9877 3.53949 29.9873C4.47726 29.9868 5.37648 29.6141 6.03955 28.951C6.04 28.9506 6.04044 28.9502 6.04089 28.9498L24.9845 10.0062L43.9295 28.9512C43.9303 28.9519 43.931 28.9527 43.9318 28.9535C44.5957 29.6162 45.4956 29.9882 46.4337 29.9875C47.3718 29.9869 48.2712 29.6137 48.9342 28.95C49.5971 28.2864 49.9693 27.3866 49.969 26.4487C49.9687 25.5107 49.5959 24.6112 48.9326 23.948C48.9324 23.9478 48.9321 23.9476 48.9319 23.9474L24.9845 5.53438e-06L1.03639 23.9481L1.03342 23.951C0.370786 24.6151 -0.000936602 25.5152 1.61709e-06 26.4534C0.000939836 27.3915 0.374465 28.2909 1.03843 28.9537L1.03848 28.9533Z" fill="#227F23"/>
<path d="M1.03848 48.9657C1.70216 49.6282 2.60173 50.0002 3.53949 49.9997C4.47726 49.9993 5.37648 49.6265 6.03955 48.9634C6.04 48.963 6.04044 48.9626 6.04089 48.9622L24.9845 30.0186L43.9295 48.9636C43.9303 48.9644 43.931 48.9652 43.9318 48.9659C44.5957 49.6287 45.4956 50.0007 46.4337 50C47.3718 49.9993 48.2712 49.6261 48.9342 48.9624C49.5971 48.2988 49.9693 47.3991 49.969 46.4611C49.9687 45.5231 49.5959 44.6237 48.9326 43.9605C48.9324 43.9603 48.9321 43.9601 48.9319 43.9599L24.9845 20.0125L1.03639 43.9606L1.03343 43.9635C0.37079 44.6276 -0.000936602 45.5277 1.61707e-06 46.4658C0.000939836 47.404 0.374465 48.3034 1.03843 48.9661L1.03848 48.9657Z" fill="#227F23"/>
</svg>
