<svg width="60" height="60" viewBox="0 0 60 60" fill="none" xmlns="http://www.w3.org/2000/svg">
<path d="M17.5 57.6357C10.2011 54.227 6.50035 50.6792 3.05803 43.7905C0.44394 38.5592 0 36.5558 0 29.9903C0 23.4247 0.44394 21.4213 3.05803 16.1901C8.4476 5.40456 17.4443 0.0163076 30.0903 3.15657e-05C47.7644 -0.0227184 59.9673 12.2539 59.9902 30.0805C59.9982 36.5569 59.5512 38.5689 56.942 43.7905C51.5644 54.5519 42.5414 59.9707 30 59.9707C24.2355 59.9707 21.343 59.4304 17.5 57.6357ZM42.6366 54.1561C62.7455 43.7953 61.5638 13.9319 40.6896 4.95206C22.9059 -2.69825 2.8 10.5882 2.8 29.9903C2.8 50.3381 24.4989 63.5012 42.6366 54.1561ZM29.244 52.7403C29.4698 52.0528 31.3073 51.3506 33.3273 51.1799C36.121 50.9438 37 51.243 37 52.4299C37 53.589 35.9498 53.9903 32.9167 53.9903C30.0977 53.9903 28.9605 53.6032 29.244 52.7403ZM39.4589 50.9237C39.0964 50.3371 38.9573 49.7414 39.1499 49.5999C39.3424 49.4584 40.9308 48.3553 42.6795 47.1485C44.4282 45.9418 46.8274 43.3875 48.0111 41.4724C50.4586 37.5121 52 36.9946 52 40.1331C52 42.3285 43.2012 51.9903 41.2019 51.9903C40.6058 51.9903 39.8214 51.5103 39.4589 50.9237ZM22.0584 36.7403C19.1468 33.7163 18.0434 31.7715 18.2332 29.9988C18.5909 26.6583 21.5666 26.2345 24.6071 29.0908L27.0357 31.3724L33.6469 24.1287C40.683 16.4194 44.1581 15.0775 44.8288 19.8108C45.0716 21.5245 43.2591 24.2703 37.8979 30.3108C30.3211 38.8476 28.1114 40.9903 26.8841 40.9903C26.4805 40.9903 24.309 39.0778 22.0584 36.7403ZM33.5483 30.2403C36.824 26.5278 40.1219 22.5903 40.8769 21.4903C42.2847 19.439 39.9247 21.8888 32.4473 30.2403C30.1083 32.8528 27.6051 34.9903 26.8848 34.9903C26.1645 34.9903 24.6582 33.9565 23.5376 32.693C22.4169 31.4296 21.9299 31.0921 22.4554 31.943C24.0109 34.4621 26.2628 36.9903 26.9512 36.9903C27.3038 36.9903 30.2725 33.9528 33.5483 30.2403ZM51.1833 33.4231C51.3575 31.3451 52.0925 29.4501 52.8167 29.212C53.7837 28.8941 54.0492 29.7823 53.8167 32.5574C53.6425 34.6355 52.9075 36.5305 52.1833 36.7685C51.2163 37.0864 50.9508 36.1982 51.1833 33.4231ZM6.18741 26.9222C6.36327 24.5163 7.07415 22.4568 7.81259 22.2138C8.78887 21.8925 9.04509 22.8776 8.81259 26.0583C8.63673 28.4642 7.92585 30.5238 7.18741 30.7667C6.21113 31.088 5.95491 30.1029 6.18741 26.9222ZM8 19.4679C8 17.4832 15.6006 9.25181 18.1929 8.42904C22.1844 7.16219 22.1374 9.63355 18.1195 12.2925C15.9408 13.7343 13.3506 16.2812 12.3635 17.9521C10.4643 21.1671 8.00004 22.0232 8.00004 19.4679H8ZM23 7.49026C23 6.40693 24.1111 5.99026 27 5.99026C31.0412 5.99026 32.3302 7.26584 29.4182 8.38327C26.4526 9.5213 23 9.04092 23 7.49026Z" fill="#247F22"/>
</svg>
