<svg width="58" height="60" viewBox="0 0 58 60" fill="none" xmlns="http://www.w3.org/2000/svg">
<path d="M21.2047 58.0448C15.5991 55.0803 8.42583 46.6103 4.47469 38.2903C1.35832 31.7281 0.7723 29.3637 0.4162 21.9156L0 13.2104L3.12054 12.525C7.0788 11.6557 11.8774 6.90276 12.7339 3.00325L13.3935 0H27.814H42.2346V2.44098C42.2346 6.10188 43.6106 6.26074 46.7687 2.96444C50.2816 -0.70229 51.1701 -0.720533 54.5475 2.80472C57.8765 6.27948 57.8765 6.72052 54.5475 10.1953C52.4051 12.4314 52.2024 13 53.5475 13C54.8956 13 55.2316 13.9545 55.2198 17.75C55.1724 32.9977 46.0765 50.609 34.9545 56.9876C28.9406 60.4366 26.1352 60.6523 21.2047 58.0448ZM32.1526 55.0418C36.8321 52.6545 43.6009 45.1576 46.8471 38.7668C51.6021 29.4053 53.9584 15 50.7346 15C49.6328 15 49.2346 16.1465 49.2346 19.3185C49.2346 31.6788 40.4796 47.7192 31.0803 52.5798C27.2366 54.5674 24.2748 53.8522 19.6942 49.8304C12.4597 43.4784 7.4481 33.6954 5.81789 22.7426C5.21235 18.6741 5.37228 17.8902 6.92219 17.3298C10.7181 15.9574 14.353 12.6882 16.2775 8.91578L18.2752 5H27.7549C34.6638 5 37.2387 5.33898 37.2499 6.25C37.2749 8.2894 38.933 10.3044 40.0289 9.62713C40.716 9.20248 40.6978 7.86095 39.9729 5.49902L38.899 2H27.0668H15.2346V4.61765C15.2346 7.81119 8.43284 15 5.41124 15C2.36845 15 2.07017 16.2004 3.24971 23.6988C5.17179 35.9175 12.3397 48.2316 20.7868 53.8268C26.4077 57.5499 27.0928 57.6232 32.1526 55.0418ZM31.9531 48.0889C38.7601 43.158 44.4821 32.9741 45.769 23.5L46.4481 18.5L37.0675 27.7551L27.6868 37.0101L21.2335 30.4989L14.7802 23.9877L18.4838 20.2841L22.1873 16.5806L25.009 19.2839L27.8307 21.9872L32.2083 17.5268C36.2087 13.4506 36.4864 12.8481 35.4317 10.5332C34.3575 8.17577 33.7949 8 27.3234 8C21.3597 8 20.2831 8.27168 19.7638 9.90777C19.1449 11.8581 11.5117 19.3999 9.44023 20.1078C6.88351 20.9816 12.0915 35.7766 17.6168 43.3361C19.573 46.0125 25.8855 51 27.3167 51C27.6565 51 29.7429 49.69 31.9531 48.0889ZM26.2346 47.5C26.2346 46.675 26.9096 46 27.7346 46C28.5596 46 29.2346 46.675 29.2346 47.5C29.2346 48.325 28.5596 49 27.7346 49C26.9096 49 26.2346 48.325 26.2346 47.5ZM26.2346 43.5C26.2346 42.675 26.9096 42 27.7346 42C28.5596 42 29.2346 42.675 29.2346 43.5C29.2346 44.325 28.5596 45 27.7346 45C26.9096 45 26.2346 44.325 26.2346 43.5ZM26.2346 39.5C26.2346 38.675 26.9096 38 27.7346 38C28.5596 38 29.2346 38.675 29.2346 39.5C29.2346 40.325 28.5596 41 27.7346 41C26.9096 41 26.2346 40.325 26.2346 39.5ZM51.9547 5.2915C50.302 3.63883 49.6531 4.11246 38.9557 14.7795L27.6962 26.0071L24.9719 23.2828C22.3968 20.7077 22.1535 20.6525 20.5299 22.2762C18.9062 23.8998 19.0552 24.2416 23.2499 28.5156L27.6877 33.0374L40.6909 20.0342C53.0451 7.6801 53.6073 6.94416 51.9547 5.2915Z" fill="#247F22"/>
</svg>
